<svg width="30" height="30" viewBox="0 0 30 30" fill="none" xmlns="http://www.w3.org/2000/svg">
<circle cx="15.001" cy="15.001" r="14.001" fill="white" stroke="#6B7280" stroke-width="2"/>
<path d="M15.0337 7C12.2755 7 10 9.13873 10 11.8039C10 12.4949 10.5861 13.0213 11.2757 13.0213C11.9652 13.0213 12.5513 12.462 12.5513 11.8039C12.5513 10.5207 13.6546 9.46776 14.9992 9.46776C16.4128 9.46776 17.4471 10.422 17.4471 11.7052C17.4471 11.7052 17.4471 11.7381 17.4471 11.8039C17.4471 12.5278 17.2403 14.2388 14.7924 14.6007C14.1718 14.6994 13.6891 15.193 13.6891 15.8181V19.1414C13.6891 19.8324 14.2752 20.3588 14.9648 20.3588C15.6543 20.3588 16.2404 19.7995 16.2404 19.1414V16.8052C19.4813 15.851 19.9985 13.1859 19.9985 11.7052C20.0674 9.07292 17.7919 7 15.0337 7Z" fill="#6B7280"/>
<path d="M15.0338 21.8418C14.1029 21.8418 13.3789 22.5657 13.3789 23.4212C13.3789 24.2767 14.1374 25.0005 15.0338 25.0005C15.9302 25.0005 16.6887 24.2767 16.6887 23.4212C16.6887 22.5657 15.9302 21.8418 15.0338 21.8418Z" fill="#6B7280"/>
</svg>
