<svg width="30" height="30" viewBox="0 0 30 30" fill="none" xmlns="http://www.w3.org/2000/svg">
<circle cx="15.001" cy="15.001" r="14.001" fill="white" stroke="#6B7280" stroke-width="2"/>
<path d="M13.4773 9.95833C13.4773 9.08388 14.1508 8.375 14.9815 8.375C15.8122 8.375 16.4857 9.08388 16.4857 9.95833C18.2457 10.8344 19.4027 12.6613 19.494 14.7083V17.0833C19.6088 18.0815 20.167 18.9629 20.9982 19.4583H8.96484C9.79598 18.9629 10.3542 18.0815 10.469 17.0833V14.7083C10.5603 12.6613 11.7173 10.8344 13.4773 9.95833" stroke="#6B7280" stroke-width="2" stroke-linecap="round" stroke-linejoin="round"/>
<path d="M12.7266 19.459V20.2507C12.7266 21.5623 13.7367 22.6257 14.9828 22.6257C16.2289 22.6257 17.2391 21.5623 17.2391 20.2507V19.459" stroke="#6B7280" stroke-width="2" stroke-linecap="round" stroke-linejoin="round"/>
</svg>
