<svg width="30" height="30" viewBox="0 0 30 30" fill="none" xmlns="http://www.w3.org/2000/svg">
<circle cx="15.0049" cy="15.001" r="14.001" fill="white" stroke="#6B7280" stroke-width="2"/>
<path fill-rule="evenodd" clip-rule="evenodd" d="M7.00391 8.81818C7.00391 8.36631 7.40192 8 7.8929 8H22.1169C22.6078 8 23.0059 8.36631 23.0059 8.81818V19.1818C23.0059 19.6337 22.6078 20 22.1169 20H16.1902V21.9091H19.7462V23H10.2636V21.9091H13.8196V20H7.8929C7.40192 20 7.00391 19.6337 7.00391 19.1818V8.81818ZM8.7819 9.63636V18.3636H21.2279V9.63636H8.7819Z" fill="#6B7280"/>
<path d="M12.9217 12.726C12.8289 12.6772 12.7143 12.6663 12.6107 12.6964C12.5071 12.7266 12.4256 12.7945 12.3894 12.8808C12.3532 12.9672 12.3663 13.0626 12.4248 13.1399L14.4371 14.8269L12.4496 16.4829H12.4497C12.3793 16.5386 12.339 16.6156 12.3379 16.6966C12.3367 16.7774 12.3747 16.8552 12.4434 16.9124C12.512 16.9696 12.6054 17.0013 12.7024 17.0003C12.7996 16.9993 12.892 16.9658 12.9589 16.9072L15.1948 15.0442V15.0443C15.2623 14.988 15.3003 14.9117 15.3003 14.8321C15.3003 14.7526 15.2623 14.6762 15.1948 14.62L12.9217 12.726Z" fill="#6B7280"/>
<path d="M17.0881 15.274C17.1809 15.3228 17.2954 15.3337 17.3991 15.3036C17.5027 15.2734 17.5842 15.2055 17.6204 15.1192C17.6566 15.0328 17.6435 14.9374 17.5849 14.8601L15.5726 13.1731L17.5602 11.5171L17.5601 11.5171C17.6304 11.4614 17.6707 11.3844 17.6718 11.3034C17.6731 11.2226 17.635 11.1448 17.5664 11.0876C17.4978 11.0304 17.4044 10.9987 17.3073 10.9997C17.2102 11.0007 17.1177 11.0342 17.0509 11.0928L14.815 12.9558L14.815 12.9557C14.7475 13.012 14.7095 13.0883 14.7095 13.1679C14.7095 13.2474 14.7475 13.3238 14.815 13.38L17.0881 15.274Z" fill="#6B7280"/>
</svg>
