<svg width="21" height="21" viewBox="0 0 21 21" fill="none" xmlns="http://www.w3.org/2000/svg">
<path d="M20 10.5C20 15.7468 15.7468 20.0001 10.5001 20.0001C5.25329 20.0001 1 15.7468 1 10.5C1 5.25329 5.25329 1 10.5001 1C15.7467 1 20 5.25329 20 10.5Z" fill="#6B7280" stroke="#94A3B8"/>
<path d="M15.5657 10.23H10.3552C10.2878 10.2306 10.2214 10.2466 10.1613 10.2767C10.0455 9.83163 9.73472 9.45927 9.3122 9.25916C8.88957 9.05905 8.39832 9.05154 7.96965 9.23871C7.54097 9.42589 7.21852 9.78868 7.08856 10.23H5.43423C5.27906 10.23 5.13579 10.311 5.05815 10.4424C4.98062 10.5738 4.98062 10.7358 5.05815 10.8672C5.13579 10.9986 5.27905 11.0796 5.43423 11.0796H7.08856C7.2185 11.5209 7.54097 11.8837 7.96965 12.0709C8.39832 12.2581 8.8896 12.2506 9.3122 12.0505C9.73472 11.8503 10.0455 11.478 10.1613 11.0329C10.2214 11.063 10.2878 11.079 10.3552 11.0796H15.5657C15.7209 11.0796 15.8642 10.9986 15.9418 10.8672C16.0193 10.7358 16.0193 10.5738 15.9418 10.4424C15.8642 10.311 15.7209 10.23 15.5657 10.23V10.23ZM8.6184 11.3628C8.42647 11.3628 8.24242 11.2882 8.10673 11.1555C7.97094 11.0226 7.89471 10.8426 7.89471 10.6548C7.89471 10.467 7.97094 10.287 8.10673 10.1541C8.24242 10.0214 8.42647 9.9468 8.6184 9.9468C8.81033 9.9468 8.99437 10.0214 9.13017 10.1541C9.26586 10.287 9.34208 10.467 9.34208 10.6548C9.34208 10.8426 9.26586 11.0226 9.13017 11.1555C8.99438 11.2882 8.81033 11.3628 8.6184 11.3628Z" fill="white"/>
<path d="M15.5658 7.12642H13.6842C13.6167 7.12711 13.5503 7.14311 13.4902 7.17314C13.3744 6.72806 13.0637 6.3557 12.6411 6.15559C12.2185 5.95548 11.7273 5.94807 11.2986 6.13525C10.8698 6.32242 10.5475 6.68511 10.4175 7.12642H5.43423C5.27906 7.12642 5.13579 7.20741 5.05815 7.33888C4.98062 7.47024 4.98062 7.63224 5.05815 7.7637C5.13579 7.89507 5.27905 7.97606 5.43423 7.97606H10.4175C10.5475 8.41737 10.8698 8.78017 11.2986 8.96733C11.7273 9.15451 12.2186 9.147 12.6411 8.94689C13.0637 8.74677 13.3744 8.37439 13.4902 7.92934C13.5503 7.95947 13.6167 7.97547 13.6842 7.97606H15.5658C15.7209 7.97606 15.8642 7.89507 15.9418 7.7637C16.0194 7.63224 16.0194 7.47026 15.9418 7.33888C15.8642 7.20741 15.7209 7.12642 15.5658 7.12642V7.12642ZM11.9474 8.25924C11.7554 8.25924 11.5714 8.18467 11.4356 8.05192C11.2999 7.91907 11.2237 7.73901 11.2237 7.55124C11.2237 7.36347 11.2999 7.18341 11.4356 7.05066C11.5714 6.91781 11.7554 6.84324 11.9474 6.84324C12.1393 6.84324 12.3233 6.91781 12.4591 7.05066C12.5948 7.18341 12.6711 7.36347 12.6711 7.55124C12.6711 7.73901 12.5948 7.91907 12.4591 8.05192C12.3233 8.18467 12.1393 8.25924 11.9474 8.25924Z" fill="white"/>
<path d="M15.5658 13.3315H13.6842C13.6167 13.3321 13.5503 13.3481 13.4902 13.3783C13.3744 12.9332 13.0637 12.5608 12.6411 12.3607C12.2185 12.1606 11.7273 12.1531 11.2986 12.3403C10.8698 12.5274 10.5475 12.8902 10.4175 13.3316H5.43423C5.27906 13.3316 5.13579 13.4125 5.05815 13.5439C4.98062 13.6754 4.98062 13.8374 5.05815 13.9687C5.13579 14.1002 5.27905 14.1812 5.43423 14.1812H10.4175C10.5475 14.6225 10.8698 14.9852 11.2986 15.1724C11.7273 15.3595 12.2186 15.3521 12.6411 15.152C13.0637 14.9519 13.3744 14.5795 13.4902 14.1345C13.5503 14.1645 13.6167 14.1805 13.6842 14.1812H15.5658C15.7209 14.1812 15.8642 14.1002 15.9418 13.9687C16.0194 13.8374 16.0194 13.6754 15.9418 13.5439C15.8642 13.4125 15.7209 13.3316 15.5658 13.3316V13.3315ZM11.9474 14.4644C11.7554 14.4644 11.5714 14.3898 11.4356 14.257C11.2999 14.1242 11.2237 13.9441 11.2237 13.7564C11.2237 13.5686 11.2999 13.3885 11.4356 13.2557C11.5714 13.1229 11.7554 13.0484 11.9474 13.0484C12.1393 13.0484 12.3233 13.1229 12.4591 13.2557C12.5948 13.3885 12.6711 13.5686 12.6711 13.7564C12.6711 13.9441 12.5948 14.1242 12.4591 14.257C12.3233 14.3898 12.1393 14.4644 11.9474 14.4644Z" fill="white"/>
</svg>
