<svg width="21" height="21" viewBox="0 0 21 21" fill="none" xmlns="http://www.w3.org/2000/svg">
<path d="M20 10.5C20 15.7468 15.7468 20.0001 10.5001 20.0001C5.25329 20.0001 1 15.7468 1 10.5C1 5.25329 5.25329 1 10.5001 1C15.7467 1 20 5.25329 20 10.5Z" fill="#6B7280" stroke="#94A3B8"/>
<path d="M11.5049 12.2987C11.947 12.2981 12.3708 12.139 12.6833 11.8561C12.9959 11.5734 13.1715 11.19 13.1719 10.7902V9.96996C13.1719 9.81184 13.0301 9.68359 12.8552 9.68359C12.6803 9.68359 12.5385 9.81184 12.5385 9.96996V10.7902C12.5385 11.1241 12.3415 11.4326 12.0217 11.5996C11.7018 11.7665 11.3078 11.7665 10.9881 11.5996C10.6682 11.4326 10.4713 11.1241 10.4713 10.7902V9.96996C10.4713 9.81184 10.3294 9.68359 10.1546 9.68359C9.97962 9.68359 9.83789 9.81184 9.83789 9.96996V10.7902C9.83816 11.19 10.0139 11.5734 10.3264 11.8561C10.639 12.139 11.0627 12.2981 11.5049 12.2987H11.5049Z" fill="white"/>
<path d="M6.14928 16.1092H14.4502C14.8948 16.1089 15.318 15.9362 15.6122 15.6346C15.9063 15.3332 16.0432 14.932 15.988 14.533L15.1647 8.57652H15.1646C15.1448 8.43326 15.0101 8.3257 14.8504 8.32562H13.5432V6.94421C13.5432 6.79415 13.4772 6.65025 13.3599 6.54413C13.2426 6.43794 13.0834 6.37834 12.9174 6.37834H12.0231V5.56391C12.0231 5.41409 11.9574 5.27028 11.8403 5.16424C11.7232 5.05813 11.5644 4.99837 11.3987 4.99805H8.09005C7.92385 4.99781 7.76437 5.05725 7.64674 5.16344C7.52914 5.26955 7.46304 5.41369 7.46304 5.56391V8.32673H6.21019C6.05052 8.32673 5.91585 8.43428 5.89606 8.57755L5.00938 14.9464V14.9464C4.96723 15.2418 5.06849 15.5392 5.28699 15.7621C5.50559 15.985 5.81997 16.1115 6.14938 16.1091L6.14928 16.1092ZM15.3597 14.604C15.3924 14.84 15.3115 15.0773 15.1375 15.2556C14.9635 15.4341 14.7133 15.5363 14.4502 15.5364H8.55997C8.29692 15.5363 8.04661 15.4341 7.87261 15.2556C7.69863 15.0773 7.61768 14.84 7.65039 14.604L8.43954 8.89954H14.5705L15.3597 14.604ZM12.91 8.32681H10.1232L10.1156 6.95227L12.9024 6.9454L12.91 8.32681ZM8.09009 5.57073L11.3899 5.56386V6.37829H10.1169C9.95071 6.37797 9.79123 6.43749 9.67361 6.5436C9.55591 6.64979 9.48982 6.79393 9.48982 6.94415V8.32677H8.09647L8.09009 5.57073ZM5.64282 15.0208L6.48895 8.90281L7.80127 8.90289L7.02228 14.5329C6.9736 14.8886 7.07733 15.2477 7.31236 15.5364H6.14946C6.00261 15.5375 5.86239 15.481 5.76519 15.3814C5.668 15.2819 5.62329 15.1491 5.64281 15.0174L5.64282 15.0208Z" fill="white"/>
</svg>
