<svg width="21" height="21" viewBox="0 0 21 21" fill="none" xmlns="http://www.w3.org/2000/svg">
<path d="M20 10.5C20 15.7468 15.7468 20.0001 10.5001 20.0001C5.25329 20.0001 1 15.7468 1 10.5C1 5.25329 5.25329 1 10.5001 1C15.7467 1 20 5.25329 20 10.5Z" fill="#6B7280" stroke="#94A3B8"/>
<path d="M15.8611 13.1289L14.7964 12.0183C14.6343 11.8492 14.3682 11.8492 14.1946 12.0183C14.0325 12.1873 14.0325 12.4649 14.1946 12.646L14.5418 13.0082H6.90366V11.5596L8.37344 10.7024L9.27612 11.7648C9.35717 11.8614 9.47285 11.9096 9.58861 11.9096H9.62332C9.75063 11.8976 9.87793 11.8251 9.94736 11.7164L11.4055 9.39855L12.4934 10.4972C12.586 10.5937 12.7133 10.63 12.8406 10.6179C12.9679 10.5937 13.0837 10.5213 13.1415 10.4007L14.8542 7.37049C14.97 7.16527 14.9121 6.88764 14.7038 6.76687C14.507 6.64611 14.2409 6.71862 14.1251 6.92384L12.6901 9.4709L11.6139 8.39645C11.5213 8.29986 11.394 8.26365 11.2783 8.2757C11.151 8.28774 11.0469 8.36024 10.9774 8.46887L9.54231 10.7506L8.77848 9.85717C8.65117 9.70021 8.43127 9.664 8.25772 9.76058L6.90369 10.5452V7.50301L7.2509 7.8652C7.33195 7.94975 7.43609 7.998 7.55178 7.998C7.66754 7.998 7.77168 7.94975 7.85265 7.8652C8.01467 7.69619 8.01467 7.41854 7.85265 7.23742L6.78794 6.12676C6.62593 5.95775 6.34815 5.95775 6.18613 6.12676L5.12151 7.23742C4.9595 7.40642 4.9595 7.68407 5.12151 7.8652C5.28353 8.04625 5.54969 8.03421 5.72332 7.8652L6.07053 7.50301V13.4426C6.07053 13.684 6.25571 13.8772 6.48715 13.8772H14.5534L14.2062 14.2394C14.0442 14.4084 14.0442 14.6861 14.2062 14.8672C14.2873 14.9517 14.3914 15 14.5071 15C14.6229 15 14.727 14.9517 14.808 14.8672L15.8727 13.7565C15.9537 13.672 16 13.5634 16 13.4427C16 13.3218 15.9422 13.2132 15.8612 13.1287L15.8611 13.1289Z" fill="white"/>
</svg>
