<svg width="21" height="21" viewBox="0 0 21 21" fill="none" xmlns="http://www.w3.org/2000/svg">
<path d="M20 10.5C20 15.7468 15.7468 20.0001 10.5001 20.0001C5.25329 20.0001 1 15.7468 1 10.5C1 5.25329 5.25329 1 10.5001 1C15.7467 1 20 5.25329 20 10.5Z" fill="#6B7280" stroke="#94A3B8"/>
<path d="M10.4905 16.0015C10.4068 16.0015 10.323 15.9834 10.2452 15.9472L5.31991 13.6456C5.12436 13.5543 5 13.3623 5 13.152L5.00013 7.84961H6.13065V12.8075L9.92545 14.5808L9.92639 10.4788L11.0569 10.4791L11.0558 15.4537C11.0558 15.6422 10.9558 15.8175 10.7912 15.9177C10.6996 15.9735 10.5953 16.0018 10.4904 16.0018L10.4905 16.0015Z" fill="white"/>
<path d="M10.7356 15.9472L10.2461 14.9591L14.8675 12.8069L14.8676 7.84961H15.9981V13.1516C15.9981 13.3624 15.8735 13.5545 15.6775 13.6457L10.7356 15.9472Z" fill="white"/>
<path d="M10.4915 11.0258C10.3977 11.0258 10.3037 11.0031 10.2189 10.9578L5.29267 8.3287C5.10734 8.22978 4.99443 8.03873 5.00021 7.83374C5.006 7.6286 5.12942 7.44381 5.31999 7.35482L10.2463 5.05432C10.401 4.98202 10.5813 4.98189 10.7362 5.05393L15.6793 7.35443C15.8703 7.4433 15.994 7.62834 15.9998 7.83361C16.0056 8.03901 15.8924 8.23019 15.7067 8.32897L10.7635 10.9581C10.6787 11.0033 10.585 11.0258 10.4915 11.0258L10.4915 11.0258ZM6.79833 7.88108L10.4918 9.85236L14.1981 7.88108L10.4918 6.15619L6.79833 7.88108Z" fill="white"/>
</svg>
