<svg width="21" height="21" viewBox="0 0 21 21" fill="none" xmlns="http://www.w3.org/2000/svg">
<path d="M20 10.502C20 15.7487 15.7468 20.0021 10.5001 20.0021C5.25329 20.0021 1 15.7487 1 10.502C1 5.25525 5.25329 1.00195 10.5001 1.00195C15.7467 1.00195 20 5.25525 20 10.502Z" fill="#6B7280" stroke="#94A3B8"/>
<path d="M14.9899 14.3482L14.2879 8.43254C14.2458 8.14378 14.0976 7.88067 13.8716 7.69345C13.6457 7.50631 13.3579 7.40833 13.0635 7.41826H12.5125C12.5125 7.3415 12.5125 7.26473 12.4881 7.18798C12.3983 6.56567 12.3207 6.02823 11.8391 5.57167V5.5716C11.4914 5.2068 11.0071 5 10.5004 5C9.99378 5 9.50945 5.20678 9.16171 5.5716C8.6801 6.02823 8.60256 6.56567 8.51276 7.1879C8.51276 7.26466 8.51276 7.34143 8.4883 7.41819L7.92509 7.41826C7.63065 7.40832 7.34291 7.50631 7.11693 7.69345C6.89102 7.88066 6.7428 8.14378 6.70074 8.43254L6.011 14.3482C5.95553 14.8292 6.11164 15.3105 6.43955 15.6696C6.8225 16.0867 7.36813 16.3207 7.93739 16.3121H13.0636C13.628 16.3182 14.1683 16.0861 14.5492 15.6737C14.8826 15.3156 15.0433 14.8324 14.9899 14.3483L14.9899 14.3482ZM9.32087 7.30514C9.41067 6.69095 9.4596 6.40811 9.72902 6.15351V6.15343C9.93014 5.94191 10.2071 5.81711 10.5004 5.80598C10.7941 5.81813 11.0713 5.94444 11.2717 6.15753C11.541 6.41211 11.59 6.69495 11.6799 7.30916V7.4223H9.31271C9.31685 7.3819 9.31685 7.34151 9.32091 7.30514L9.32087 7.30514ZM13.9368 15.1323C13.7114 15.3718 13.394 15.5055 13.0634 15.5H7.93726C7.60664 15.5055 7.28925 15.3718 7.06384 15.1323C6.88686 14.9473 6.80032 14.6948 6.82716 14.4413L7.52505 8.52562C7.54895 8.43742 7.60234 8.35987 7.67645 8.30558C7.75056 8.2513 7.841 8.22345 7.9332 8.22653H8.45968C8.45968 8.38005 8.45968 8.53366 8.50048 8.6872C8.52016 8.83157 8.61618 8.95457 8.75229 9.00989C8.8884 9.06521 9.04394 9.04444 9.16044 8.95537C9.27686 8.8663 9.33647 8.72248 9.31679 8.57809C9.31679 8.46093 9.31679 8.3437 9.29232 8.22654H11.7247C11.7247 8.3437 11.7247 8.46093 11.7003 8.57809C11.6835 8.68184 11.7083 8.78796 11.7692 8.87394C11.8302 8.95993 11.9226 9.0191 12.0268 9.03875H12.084C12.183 9.03977 12.279 9.00498 12.3541 8.94108C12.4292 8.87717 12.4782 8.78834 12.4921 8.6913C12.5125 8.53777 12.5248 8.38417 12.5329 8.23063H13.0798C13.1719 8.22747 13.2624 8.25532 13.3365 8.3096C13.4107 8.36396 13.464 8.44143 13.4879 8.52965L14.1735 14.4413C14.2004 14.6948 14.1139 14.9473 13.9369 15.1323L13.9368 15.1323Z" fill="white"/>
<path d="M11.726 11.8672H9.2773C9.13148 11.8672 8.99673 11.9442 8.92382 12.0692C8.85091 12.1943 8.85091 12.3483 8.92382 12.4733C8.99674 12.5984 9.13149 12.6754 9.2773 12.6754H11.726H11.726C11.8718 12.6754 12.0065 12.5984 12.0794 12.4733C12.1524 12.3483 12.1524 12.1943 12.0794 12.0692C12.0065 11.9442 11.8718 11.8672 11.726 11.8672H11.726Z" fill="white"/>
</svg>
