<svg width="21" height="21" viewBox="0 0 21 21" fill="none" xmlns="http://www.w3.org/2000/svg">
<path d="M20 10.502C20 15.7487 15.7468 20.0021 10.5001 20.0021C5.25329 20.0021 1 15.7487 1 10.502C1 5.25525 5.25329 1.00195 10.5001 1.00195C15.7467 1.00195 20 5.25525 20 10.502Z" fill="#6B7280" stroke="#94A3B8"/>
<path d="M14.6142 8.195C14.3404 8.12785 14.0666 8.30697 14.0034 8.59799L13.1189 12.5047H8.69617L7.43255 7.14276C7.37989 6.89649 7.1693 6.72859 6.93763 6.72859L5.50544 6.72852C5.2211 6.72852 5 6.97479 5 7.26581C5 7.55684 5.23167 7.80311 5.50544 7.80311H6.52687L7.79049 13.1651C7.84316 13.4114 8.05375 13.5792 8.28541 13.5792H13.5084C13.7401 13.5792 13.9507 13.4114 14.0034 13.1651L14.9826 8.84416C15.0564 8.55321 14.8879 8.26213 14.6141 8.19496L14.6142 8.195Z" fill="white"/>
<path d="M9.89715 15.035C9.89715 15.5666 9.49175 15.9977 8.99154 15.9977C8.49139 15.9977 8.08594 15.5666 8.08594 15.035C8.08594 14.5033 8.49139 14.0723 8.99154 14.0723C9.49177 14.0723 9.89715 14.5033 9.89715 15.035Z" fill="white"/>
<path d="M13.4557 15.035C13.4557 15.5666 13.0503 15.9977 12.5501 15.9977C12.05 15.9977 11.6445 15.5666 11.6445 15.035C11.6445 14.5033 12.05 14.0723 12.5501 14.0723C13.0503 14.0723 13.4557 14.5033 13.4557 15.035Z" fill="white"/>
<path d="M11.8108 8.69852L11.2843 9.25823L11.2843 6.53806C11.2843 6.2358 11.0527 6.00076 10.7789 6.00076C10.4946 6.00076 10.2735 6.24703 10.2735 6.53806L10.2735 9.25823L9.74694 8.69852C9.65218 8.59779 9.51527 8.54181 9.38893 8.54181C9.26258 8.54181 9.12567 8.5978 9.03092 8.69852C8.83082 8.91123 8.83082 9.25823 9.03092 9.47094L10.4209 10.9485C10.6104 11.15 10.9474 11.15 11.1369 10.9485L12.5374 9.4597C12.7375 9.247 12.7375 8.9 12.5374 8.68729C12.3373 8.48584 12.0109 8.48584 11.8108 8.69853L11.8108 8.69852Z" fill="white"/>
</svg>
