<svg width="21" height="21" viewBox="0 0 21 21" fill="none" xmlns="http://www.w3.org/2000/svg">
<path d="M20 10.502C20 15.7487 15.7468 20.0021 10.5001 20.0021C5.25329 20.0021 1 15.7487 1 10.502C1 5.25525 5.25329 1.00195 10.5001 1.00195C15.7467 1.00195 20 5.25525 20 10.502Z" fill="#6B7280" stroke="#94A3B8"/>
<path d="M14.97 8.87984H14.8052C14.764 6.74806 13.1161 5 11.015 5H9.94382C7.8839 5 6.19476 6.70543 6.15356 8.87984H5.98876C5.45318 8.87984 5 9.34884 5 9.9031V11.1822C5 11.7364 5.45318 12.2054 5.98876 12.2054C6.52434 12.2054 6.97753 11.7364 6.97753 11.1822V8.92248C6.97753 7.21705 8.29588 5.85271 9.94382 5.85271H11.015C12.6629 5.85271 13.9813 7.21705 13.9813 8.92248V11.1822C13.9813 11.4806 14.1049 11.7791 14.3109 11.9496C14.3109 12.3333 14.2285 13.4845 13.4045 14.2946C12.6629 15.0194 11.5094 15.2752 9.98502 15.1047C9.73783 15.062 9.53184 15.2326 9.53184 15.4884C9.49064 15.7442 9.65543 15.9574 9.90262 15.9574C10.2322 16 10.5618 16 10.8914 16C12.2097 16 13.2809 15.6163 14.0225 14.8915C14.9288 13.9961 15.0936 12.845 15.1348 12.2054C15.6292 12.1202 16 11.6938 16 11.1822V9.9031C16 9.34884 15.5468 8.87984 14.97 8.87984ZM6.19476 11.1822C6.19476 11.2674 6.11236 11.3527 6.02996 11.3527C5.94757 11.3527 5.86517 11.2674 5.86517 11.1822V9.9031C5.86517 9.81783 5.94757 9.73256 6.02996 9.73256C6.11236 9.73256 6.19476 9.81783 6.19476 9.9031V11.1822ZM15.176 11.1822C15.176 11.2674 15.0936 11.3527 15.0112 11.3527C14.9288 11.3527 14.8464 11.2674 14.8464 11.1822V9.9031C14.8464 9.81783 14.9288 9.73256 15.0112 9.73256C15.0936 9.73256 15.176 9.81783 15.176 9.9031V11.1822Z" fill="white"/>
<path d="M10.8511 6.4043H10.1507C8.6676 6.4043 7.43164 7.64073 7.43164 9.17561V11.5632C7.43164 13.0981 8.6264 14.3772 10.1507 14.3772H10.8923C12.3755 14.3772 13.5702 13.1407 13.5702 11.5632V9.17561C13.5702 7.64073 12.3343 6.4043 10.8511 6.4043ZM12.7462 11.5632C12.7462 12.6291 11.9223 13.5245 10.8923 13.5245H10.1507C9.12078 13.5245 8.25561 12.6717 8.25561 11.5632V9.85778C8.544 10.071 8.91479 10.1562 9.28557 10.1562C10.1095 10.1562 10.8099 9.64461 11.0571 8.87716C11.3867 9.21825 11.8811 9.43143 12.3755 9.43143C12.4991 9.43143 12.6227 9.43143 12.7462 9.38879V11.5632Z" fill="white"/>
<path d="M11.8375 11.8223C11.8375 12.4192 11.1371 12.9308 10.5604 12.9308C9.98358 12.9308 9.2832 12.4192 9.2832 11.8223H11.8375Z" fill="white"/>
</svg>
