<svg width="21" height="21" viewBox="0 0 21 21" fill="none" xmlns="http://www.w3.org/2000/svg">
<path d="M20 10.5C20 15.7468 15.7468 20.0001 10.5001 20.0001C5.25329 20.0001 1 15.7468 1 10.5C1 5.25329 5.25329 1 10.5001 1C15.7467 1 20 5.25329 20 10.5Z" fill="#6B7280" stroke="#94A3B8"/>
<path d="M5.38464 13.8571C5.17225 13.8571 5 14.017 5 14.2143C5 14.4115 5.17215 14.5714 5.38464 14.5714H5.76927V14.9286C5.76927 15.5194 6.28678 16 6.92307 16H13.8461C14.4824 16 14.9999 15.5194 14.9999 14.9286L15 7.0714C15 6.48055 14.4825 6 13.8462 6H6.92316C6.28687 6 5.76936 6.48055 5.76936 7.0714V7.42856H5.38473C5.17233 7.42856 5.00009 7.58842 5.00009 7.78573C5.00009 7.98295 5.17224 8.1429 5.38473 8.1429H5.76936V13.8572L5.38464 13.8571ZM6.53852 14.5714H6.92316C7.13555 14.5714 7.3078 14.4116 7.3078 14.2143C7.3078 14.017 7.13565 13.8571 6.92316 13.8571H6.53852V8.14277H6.92316C7.13555 8.14277 7.3078 7.98291 7.3078 7.7856C7.3078 7.58838 7.13565 7.42843 6.92316 7.42843H6.53852V7.07127C6.53852 6.87438 6.71112 6.7141 6.92316 6.7141H13.8462C14.0582 6.7141 14.2308 6.87437 14.2308 7.07127V14.9285C14.2308 15.1254 14.0582 15.2856 13.8462 15.2856H6.92316C6.71113 15.2856 6.53852 15.1254 6.53852 14.9285V14.5714Z" fill="white"/>
<path d="M10.6682 10.6423C11.5612 10.6423 12.2876 10.0014 12.2876 9.21372C12.2876 8.426 11.5612 7.78516 10.6682 7.78516C9.77526 7.78516 9.04883 8.426 9.04883 9.21372C9.04883 10.0014 9.77528 10.6423 10.6682 10.6423ZM10.6682 8.49941C11.1148 8.49941 11.478 8.81977 11.478 9.21374C11.478 9.60771 11.1148 9.92807 10.6682 9.92807C10.2216 9.92807 9.85847 9.60771 9.85847 9.21374C9.85847 8.81977 10.2216 8.49941 10.6682 8.49941Z" fill="white"/>
<path d="M8.64507 14.2144H12.6936C12.9172 14.2144 13.0985 14.0545 13.0985 13.8572V13.1429C13.0985 11.9612 12.0089 11 10.6694 11C9.32983 11 8.24023 11.9612 8.24023 13.1429V13.8572C8.24023 14.0545 8.42144 14.2144 8.64511 14.2144H8.64507ZM9.04995 13.143C9.04995 12.3552 9.7764 11.7144 10.6693 11.7144C11.5623 11.7144 12.2888 12.3553 12.2888 13.143V13.5001H9.0499L9.04995 13.143Z" fill="white"/>
</svg>
