<svg width="21" height="21" viewBox="0 0 21 21" fill="none" xmlns="http://www.w3.org/2000/svg">
<path d="M20 10.5C20 15.7468 15.7468 20.0001 10.5001 20.0001C5.25329 20.0001 1 15.7468 1 10.5C1 5.25329 5.25329 1 10.5001 1C15.7467 1 20 5.25329 20 10.5Z" fill="#6B7280" stroke="#94A3B8"/>
<path d="M13.3124 6.22219H11.625C11.625 5.78554 11.4105 5.38206 11.0624 5.16374C10.7144 4.94542 10.2855 4.94542 9.93749 5.16374C9.58937 5.38206 9.37494 5.78554 9.37494 6.22219H7.68747C7.24 6.22219 6.81078 6.41534 6.49428 6.75919C6.17779 7.10304 6 7.56935 6 8.05549V14.1667C6 14.6528 6.17779 15.1191 6.49428 15.463C6.81078 15.8068 7.24 16 7.68747 16H13.3125C13.76 16 14.1892 15.8068 14.5057 15.463C14.8222 15.1191 15 14.6528 15 14.1667V8.05549C15 7.56935 14.8222 7.10304 14.5057 6.75919C14.1892 6.41534 13.7599 6.22219 13.3124 6.22219ZM14.4374 14.1664C14.4372 14.4904 14.3184 14.8012 14.1075 15.0303C13.8966 15.2594 13.6107 15.3884 13.3124 15.3887H7.68738C7.38915 15.3884 7.10317 15.2595 6.89234 15.0303C6.6814 14.8012 6.56275 14.4905 6.56246 14.1665V8.05533C6.56274 7.73134 6.68139 7.42064 6.89234 7.19158C7.10318 6.96242 7.38915 6.83351 7.68738 6.8332H8.24993C8.24993 6.99525 8.30916 7.15065 8.41463 7.26523C8.52009 7.37991 8.66322 7.44426 8.81239 7.44426H12.1873C12.3365 7.44426 12.4796 7.37991 12.5851 7.26523C12.6906 7.15065 12.7498 6.99524 12.7498 6.8332H13.3123C13.6106 6.83351 13.8965 6.96241 14.1074 7.19158C14.3183 7.42064 14.437 7.73134 14.4373 8.05533L14.4374 14.1664ZM13.3124 10.1942V12.0276C13.3124 12.1963 13.1864 12.3332 13.0312 12.3332C12.8759 12.3332 12.7499 12.1963 12.7499 12.0276V10.9319L10.98 12.8547C10.9273 12.912 10.8558 12.9442 10.7812 12.9442C10.7066 12.9442 10.6351 12.912 10.5823 12.8547L9.65621 11.8486L8.16763 13.4658C8.05726 13.5816 7.88184 13.58 7.77336 13.4621C7.66488 13.3443 7.66337 13.1537 7.76997 13.0338L9.45744 11.2005C9.51008 11.1432 9.58164 11.1109 9.65623 11.1109C9.73081 11.1109 9.80237 11.1432 9.85511 11.2005L10.7812 12.2066L12.3522 10.4999H11.3437C11.1884 10.4999 11.0624 10.363 11.0624 10.1943C11.0624 10.0256 11.1884 9.88871 11.3437 9.88871H13.0312C13.1057 9.88871 13.1773 9.92083 13.23 9.97822C13.2829 10.0355 13.3124 10.1132 13.3124 10.1942Z" fill="white"/>
</svg>
