<svg width="21" height="21" viewBox="0 0 21 21" fill="none" xmlns="http://www.w3.org/2000/svg">
<path d="M20 10.5C20 15.7468 15.7468 20.0001 10.5001 20.0001C5.25329 20.0001 1 15.7468 1 10.5C1 5.25329 5.25329 1 10.5001 1C15.7467 1 20 5.25329 20 10.5Z" fill="#6B7280" stroke="#94A3B8"/>
<path d="M8.66793 14.9787C8.83344 14.9734 8.99017 14.9063 9.10551 14.7914C9.22083 14.6767 9.28565 14.5234 9.28641 14.3635C9.28703 14.2035 9.22359 14.0496 9.10936 13.9338L5.53372 10.4787L9.06533 7.06626V7.06641C9.1902 6.95141 9.26179 6.79268 9.26394 6.62608C9.26595 6.45946 9.19835 6.29909 9.07642 6.1811C8.95448 6.06327 8.78851 5.99797 8.61606 6.00005C8.44362 6.00213 8.27934 6.07131 8.16035 6.19196L4.18737 10.0309C4.06743 10.1468 4 10.304 4 10.4681C4 10.632 4.06743 10.7893 4.18737 10.9053L8.22656 14.7868C8.34204 14.9042 8.50046 14.9731 8.66797 14.9788L8.66793 14.9787Z" fill="white"/>
<path d="M12.7737 6.19108C12.6088 6.09051 12.4052 6.06819 12.2211 6.13023C12.0369 6.19241 11.8922 6.33226 11.8278 6.51018C11.7635 6.68826 11.7867 6.88478 11.8908 7.04413L15.4665 10.5205L11.9348 13.9329H11.935C11.81 14.0478 11.7384 14.2065 11.7364 14.3733C11.7342 14.5399 11.8018 14.7003 11.9238 14.8181C12.0457 14.9359 12.2117 15.0012 12.3841 14.9991C12.5567 14.9972 12.721 14.928 12.8398 14.8072L16.8128 10.9683V10.9685C16.9327 10.8524 17.0002 10.6952 17.0002 10.5313C17.0002 10.3673 16.9327 10.2099 16.8128 10.0941L12.7737 6.19108Z" fill="white"/>
</svg>
