<svg width="21" height="21" viewBox="0 0 21 21" fill="none" xmlns="http://www.w3.org/2000/svg">
<path d="M20 10.5C20 15.7468 15.7468 20.0001 10.5001 20.0001C5.25329 20.0001 1 15.7468 1 10.5C1 5.25329 5.25329 1 10.5001 1C15.7467 1 20 5.25329 20 10.5Z" fill="#6B7280" stroke="#94A3B8"/>
<path d="M12.0498 5.79564C11.6834 6.42151 11.7859 7.1886 12.3074 7.70764L11.8717 8.4567C11.6537 8.37778 11.3963 8.33832 11.1389 8.33832C10.0696 8.33832 9.17839 9.10706 9.0002 10.1123L8.10911 10.1123C7.93092 9.44211 7.31707 8.92951 6.58426 8.92951C5.7129 8.92951 5 9.63912 5 10.5065C5 11.3738 5.7129 12.0834 6.58426 12.0834C7.31693 12.0834 7.93078 11.5709 8.10911 10.9006L9.0002 10.9006C9.1784 11.9059 10.0693 12.6746 11.1389 12.6746C11.3964 12.6746 11.634 12.6351 11.8716 12.5563L12.3072 13.3054C11.8075 13.8029 11.671 14.5706 12.0496 15.2174C12.4853 15.9665 13.4558 16.2226 14.2081 15.789C14.9279 15.3879 15.2459 14.4324 14.7823 13.6405C14.406 13.0096 13.6731 12.7337 13.0001 12.9112L12.5645 12.1424C13.0395 11.7482 13.3366 11.1569 13.3366 10.4867C13.3366 9.81658 13.0396 9.2252 12.5645 8.83101L13.0001 8.06227C13.6732 8.23964 14.4256 7.96369 14.7823 7.33313C15.2251 6.57664 14.972 5.61058 14.2081 5.18464C13.4558 4.79031 12.4854 5.04646 12.0498 5.79551L12.0498 5.79564ZM14.1093 14.035C14.2646 14.2668 14.2906 14.8261 13.8123 15.1191C13.4361 15.3359 12.941 15.1979 12.7231 14.8235C12.5095 14.3979 12.6578 13.9616 13.0201 13.7393C13.3964 13.5225 13.8915 13.6606 14.1093 14.035ZM6.58425 11.2951C6.14859 11.2951 5.79221 10.9404 5.79221 10.5067C5.79221 10.0731 6.14859 9.71833 6.58425 9.71833C7.01992 9.71833 7.3763 10.0731 7.3763 10.5067C7.3763 10.9404 7.01992 11.2951 6.58425 11.2951ZM12.5251 10.5067C12.5251 11.2754 11.9112 11.8865 11.1389 11.8865C10.3666 11.8865 9.75278 11.2754 9.75278 10.5067C9.75278 9.73797 10.3666 9.12695 11.1389 9.12695C11.9112 9.12695 12.5251 9.73797 12.5251 10.5067ZM13.8122 5.89427C14.1501 6.07535 14.3328 6.53334 14.1092 6.97842C13.8914 7.35297 13.3963 7.49113 13.02 7.27404C12.6568 7.05143 12.5099 6.61501 12.723 6.18988C12.9409 5.81533 13.4359 5.67742 13.8122 5.89427Z" fill="white"/>
</svg>
