<svg width="21" height="21" viewBox="0 0 21 21" fill="none" xmlns="http://www.w3.org/2000/svg">
<path d="M20 10.5C20 15.7468 15.7468 20.0001 10.5001 20.0001C5.25329 20.0001 1 15.7468 1 10.5C1 5.25329 5.25329 1 10.5001 1C15.7467 1 20 5.25329 20 10.5Z" fill="#6B7280" stroke="#94A3B8"/>
<path d="M5.43645 11.0211C5.10148 11.1884 4.93397 11.5617 5.0242 11.922C5.15308 12.4111 5.35917 12.9129 5.62976 13.3891C5.81013 13.698 6.18373 13.8395 6.54458 13.7237C6.75075 13.6465 6.98262 13.7108 7.1373 13.8652C7.29189 14.0196 7.34347 14.2513 7.27903 14.4572C7.1631 14.8047 7.30483 15.1908 7.614 15.371C8.11649 15.6541 8.59318 15.86 9.0828 15.9758C9.44356 16.066 9.81725 15.8986 9.98467 15.564C10.0878 15.371 10.281 15.2551 10.5 15.2551C10.719 15.2551 10.9123 15.3709 11.0153 15.564C11.1571 15.8343 11.4277 15.9887 11.724 15.9887C11.7884 15.9887 11.8529 15.9758 11.9172 15.9629C12.4068 15.8471 12.8964 15.6412 13.386 15.358C13.6952 15.1779 13.837 14.7918 13.721 14.4443C13.6437 14.2384 13.7081 14.0068 13.8627 13.8523C14.0173 13.6979 14.2492 13.6463 14.4554 13.7107C14.8033 13.8265 15.1769 13.6979 15.3702 13.3761C15.6537 12.8871 15.8599 12.3981 15.9758 11.9091C16.066 11.5487 15.8985 11.1755 15.5635 10.9953C15.3702 10.8924 15.2542 10.6994 15.2542 10.4806C15.2542 10.2618 15.3702 10.0687 15.5635 9.96589C15.8984 9.79856 16.0659 9.42539 15.9758 9.05214C15.8469 8.56309 15.6408 8.0612 15.3702 7.58507C15.1899 7.27619 14.8163 7.13461 14.4554 7.2505C14.2492 7.3277 14.0174 7.26333 13.8627 7.10893C13.7081 6.95453 13.6565 6.72284 13.721 6.51691C13.8369 6.16942 13.6952 5.78333 13.386 5.60316C12.9093 5.3459 12.4197 5.15279 11.9302 5.02417C11.5694 4.93404 11.1957 5.10137 11.0283 5.43603C10.9252 5.62902 10.732 5.74491 10.513 5.74491C10.2939 5.74491 10.1006 5.6291 9.99764 5.43603C9.83011 5.10145 9.4565 4.93413 9.09576 5.02417C8.60614 5.13997 8.11659 5.3459 7.62696 5.62902C7.31772 5.80918 7.17597 6.19528 7.292 6.54276C7.36929 6.74869 7.30485 6.98029 7.15027 7.13479C6.99568 7.28919 6.76372 7.34071 6.55755 7.27635C6.20965 7.16055 5.83605 7.28919 5.64272 7.61092C5.35918 8.09988 5.15301 8.58885 5.02421 9.09075C4.93398 9.45108 5.1015 9.82433 5.43646 9.99165C5.62968 10.0946 5.7457 10.2876 5.7457 10.5064C5.7457 10.7251 5.62977 10.9182 5.43646 11.0211L5.43645 11.0211ZM6.0678 9.18088C6.15803 8.89776 6.27397 8.60179 6.42856 8.31865C6.95683 8.42162 7.48511 8.25429 7.87157 7.88113C8.25812 7.49503 8.4127 6.96738 8.30961 6.43982C8.60592 6.28542 8.88937 6.16952 9.17285 6.07948C9.48209 6.50409 9.97174 6.77437 10.5129 6.77437C11.054 6.77437 11.5436 6.50407 11.8399 6.06655C12.1234 6.14375 12.4069 6.27247 12.7032 6.42688C12.6001 6.95453 12.7676 7.48219 13.1412 7.86819C13.5278 8.25428 14.056 8.40869 14.5842 8.30571C14.7388 8.58883 14.8548 8.8848 14.945 9.16794C14.5199 9.47682 14.2493 9.96589 14.2493 10.5064C14.2493 11.0468 14.5199 11.5359 14.9579 11.8319C14.8677 12.115 14.7518 12.411 14.5972 12.6941C14.0818 12.5911 13.5406 12.7585 13.1542 13.1316C12.7676 13.5177 12.613 14.0454 12.7161 14.5729C12.4198 14.7273 12.1364 14.8432 11.8529 14.9333C11.5436 14.5087 11.054 14.2384 10.5129 14.2384C9.97176 14.2384 9.48212 14.5087 9.1858 14.9462C8.90235 14.869 8.61887 14.7403 8.32256 14.5859C8.42564 14.0582 8.25812 13.5306 7.88452 13.1446C7.49797 12.7585 6.96969 12.6041 6.44151 12.707C6.28693 12.4239 6.1709 12.128 6.08075 11.8448C6.50586 11.5359 6.77645 11.0469 6.77645 10.5064C6.77645 9.96591 6.50584 9.47684 6.0678 9.18088Z" fill="white"/>
<path d="M10.5126 12.6295C11.6851 12.6295 12.6384 11.6772 12.6384 10.5062C12.6384 9.33505 11.685 8.38281 10.5126 8.38281C9.3401 8.38281 8.38672 9.33508 8.38672 10.5062C8.38672 11.6772 9.3401 12.6295 10.5126 12.6295ZM10.5126 9.41224C11.1181 9.41224 11.6078 9.90129 11.6078 10.5062C11.6078 11.111 11.1181 11.6001 10.5126 11.6001C9.90699 11.6001 9.41736 11.111 9.41736 10.5062C9.41736 9.90129 9.90699 9.41224 10.5126 9.41224Z" fill="white"/>
</svg>
