<?xml version="1.0" encoding="UTF-8"?>
<svg version="1.1" xmlns="http://www.w3.org/2000/svg" width="570" height="150">
<path d="M0 0 C13.62303954 11.71874369 21.95329763 26.3076889 25 44 C26.48621471 67.57854008 24.05323682 89.11371377 8.14453125 107.69921875 C-5.35358155 122.18080061 -22.90964664 131.88261366 -42.94995117 133.19287109 C-68.68823802 133.8632977 -90.46173742 130.83459448 -110.50390625 113.47265625 C-123.19806727 100.89768923 -132.23823376 83.06020798 -133 65 C-133.0515625 63.92621094 -133.103125 62.85242188 -133.15625 61.74609375 C-133.71056666 39.59652398 -126.95521356 19.80041127 -111.640625 3.41796875 C-82.06407185 -23.66470344 -31.20607917 -24.69052417 0 0 Z M-72.5 34.0625 C-79.5259288 41.12231591 -81.34427905 47.77220764 -81.5 57.5 C-81.37291904 67.46553647 -78.88754206 74.97567236 -71.91015625 82.30859375 C-66.07937178 87.47164012 -59.70307432 89.08385928 -52 89 C-44.01735309 88.37780364 -38.7507372 84.87802466 -33.2734375 79.21484375 C-27.65515358 72.47567067 -25.34554334 63.96979952 -25.71875 55.24609375 C-26.81452348 46.49512498 -30.16494038 38.43484216 -36.74609375 32.3984375 C-47.8100974 24.53172389 -62.24792812 25.58424701 -72.5 34.0625 Z " fill="#0F5AFB" transform="translate(544,17)"/>
<path d="M0 0 C1.60205819 1.36400135 3.15596169 2.78435493 4.6953125 4.21875 C-0.65866732 10.74020754 -6.61770659 16.61296071 -12.6171875 22.53125 C-14.61615367 24.50363502 -16.6117797 26.47931397 -18.60546875 28.45703125 C-19.48372314 29.32368408 -20.36197754 30.19033691 -21.2668457 31.08325195 C-23.34195923 33.04833671 -23.34195923 33.04833671 -24.3046875 35.21875 C-27.21744322 33.87489581 -29.5217537 32.31663886 -31.9921875 30.28125 C-38.9644692 25.01015348 -46.59618936 23.03536524 -55.3046875 24.21875 C-58.33934452 25.53102434 -58.33934452 25.53102434 -60.3046875 27.21875 C-60.36194631 29.6445738 -60.36194631 29.6445738 -59.3046875 32.21875 C-56.8827103 33.48740472 -54.81524377 34.33458417 -52.2421875 35.15625 C-50.77729216 35.66651857 -49.31244989 36.17693954 -47.84765625 36.6875 C-46.717229 37.06841797 -46.717229 37.06841797 -45.56396484 37.45703125 C-28.7756822 43.11722596 -11.50569502 49.42473638 -2.4921875 65.76171875 C2.36159967 75.80458761 2.06541784 88.06449037 -1.27734375 98.5703125 C-6.23778932 111.35807714 -13.93900925 120.41919404 -26.1796875 126.65625 C-26.80278809 126.97424561 -27.42588867 127.29224121 -28.06787109 127.61987305 C-37.78071546 132.21893579 -47.76044612 133.76477643 -58.4296875 133.65625 C-59.51717285 133.64650146 -60.6046582 133.63675293 -61.72509766 133.62670898 C-81.44497971 133.19814222 -100.45170431 127.22872095 -116.00390625 114.7265625 C-117.3046875 113.21875 -117.3046875 113.21875 -117.3046875 110.21875 C-115.75401866 108.30215931 -114.19661243 106.5518219 -112.4921875 104.78125 C-111.48291328 103.70718123 -110.47380349 102.63295794 -109.46484375 101.55859375 C-108.94293457 101.00800293 -108.42102539 100.45741211 -107.88330078 99.89013672 C-105.37264986 97.23193749 -102.9011279 94.53835108 -100.4296875 91.84375 C-99.56601563 90.90789062 -98.70234375 89.97203125 -97.8125 89.0078125 C-95.22968308 86.13533387 -92.75910278 83.20099652 -90.3046875 80.21875 C-87.06654314 80.81525028 -85.29603712 81.84891743 -82.8046875 83.96875 C-73.90576129 90.77864917 -64.4961955 93.69540731 -53.3046875 92.21875 C-51.010041 91.2875904 -51.010041 91.2875904 -49.3046875 90.21875 C-48.63314066 87.93533257 -48.63314066 87.93533257 -49.3046875 85.21875 C-54.95009561 80.20800886 -62.61235635 78.12738578 -69.6171875 75.78125 C-84.1582667 70.9107371 -98.13733741 64.96063224 -106.33203125 51.2734375 C-111.27753798 40.8263028 -111.48805509 28.22911313 -108.3046875 17.21875 C-102.88563 3.3777178 -94.55619096 -5.06705498 -81.09375 -11.2578125 C-54.38101379 -22.10787875 -22.91625311 -17.71154478 0 0 Z " fill="#0F5AFB" transform="translate(179.3046875,16.78125)"/>
<path d="M0 0 C31.68 0 63.36 0 96 0 C96 13.53 96 27.06 96 41 C79.83 41 63.66 41 47 41 C47 45.62 47 50.24 47 55 C61.19 55 75.38 55 90 55 C90 67.87 90 80.74 90 94 C75.81 94 61.62 94 47 94 C47 109.84 47 125.68 47 142 C31.49 142 15.98 142 0 142 C0 95.14 0 48.28 0 0 Z " fill="#0F5AFB" transform="translate(198,4)"/>
<path d="M0 0 C16.17 0 32.34 0 49 0 C49 33.33 49 66.66 49 101 C64.51 101 80.02 101 96 101 C96 114.53 96 128.06 96 142 C64.32 142 32.64 142 0 142 C0 95.14 0 48.28 0 0 Z " fill="#0F59FB" transform="translate(314,4)"/>
<path d="M0 0 C16.17 0 32.34 0 49 0 C49 46.86 49 93.72 49 142 C32.83 142 16.66 142 0 142 C0 95.14 0 48.28 0 0 Z " fill="#0F5AFB" transform="translate(0,4)"/>
</svg>
